<svg xmlns="http://www.w3.org/2000/svg" viewBox="0 0 170 32">
  <g>
    <rect x="71.16" y="1.77" width="0.48" height="30.23" style="fill: #fff"/>
    <polygon points="56.93 32 56.91 18.73 65.14 18.73 65.14 13.55 56.9 13.55 56.89 6.96 66.72 6.96 66.72 1.78 50.25 1.78 50.29 29.28 56.93 32" style="fill: #fff"/>
    <polygon points="39.51 11.2 39.51 24.86 45.11 27.16 45.11 1.78 30.16 9.31 15.22 1.78 15.22 8.84 30.16 14.96 39.51 11.2" style="fill: #fff"/>
    <path d="M83.12,2.26v.81s0,0,0,0h0a2.87,2.87,0,0,0-3.83.22,2.82,2.82,0,0,0-.84,2.05,2.82,2.82,0,0,0,.84,2.05,2.87,2.87,0,0,0,3.83.22h0s0,0,0,0v.55a.43.43,0,0,1-.26.42A3.59,3.59,0,0,1,81.28,9a3.44,3.44,0,0,1-2.55-1.06,3.54,3.54,0,0,1-1.06-2.57A3.54,3.54,0,0,1,78.73,2.8a3.45,3.45,0,0,1,2.55-1.07,3.49,3.49,0,0,1,1.83.51s0,0,0,0" style="fill: #fff"/>
    <path d="M86.48,3.32a2.79,2.79,0,0,0-.85,2.05,2.79,2.79,0,0,0,.85,2.05,2.85,2.85,0,0,0,4.06,0,2.79,2.79,0,0,0,.85-2,2.79,2.79,0,0,0-.85-2.05,2.85,2.85,0,0,0-4.06,0m5.64,2.05a3.5,3.5,0,0,1-1.06,2.57,3.6,3.6,0,0,1-5.1,0A3.54,3.54,0,0,1,84.9,5.37,3.54,3.54,0,0,1,86,2.8a3.57,3.57,0,0,1,5.1,0,3.5,3.5,0,0,1,1.06,2.57" style="fill: #fff"/>
    <path d="M94.47,1.9,97.62,6l3.15-4.07A.13.13,0,0,1,101,2V8.82a0,0,0,0,1,0,0h-.43a.27.27,0,0,1-.27-.27V3.72L97.67,7.09a.06.06,0,0,1-.1,0L95,3.72v5.1s0,0,0,0h-.66a0,0,0,0,1,0,0V2a.13.13,0,0,1,.24-.08" style="fill: #fff"/>
    <path d="M104.4,8.85h-.66s0,0,0,0V1.92s0,0,0,0h.66a0,0,0,0,1,0,0v6.9a0,0,0,0,1,0,0" style="fill: #fff"/>
    <path d="M108.84,8.28a2.6,2.6,0,0,0,.92-.17,1.16,1.16,0,0,0,.58-1.48,1.2,1.2,0,0,0-.65-.66l-2.07-1-.07,0a1.59,1.59,0,0,1-.82-.93,1.53,1.53,0,0,1,0-1,1.59,1.59,0,0,1,.28-.55,1.83,1.83,0,0,1,.9-.62,4.78,4.78,0,0,1,.57-.12,4.49,4.49,0,0,1,.64,0,4.34,4.34,0,0,1,1.77.42s0,0,0,0v.75l0,0h0l-.12-.07a3.59,3.59,0,0,0-1.63-.42,3.05,3.05,0,0,0-.53,0l-.45.1a1.26,1.26,0,0,0-.44.25,1,1,0,0,0-.27.44.8.8,0,0,0,0,.51,1,1,0,0,0,.58.57l2,.94a1.92,1.92,0,0,1,1,1.06,1.83,1.83,0,0,1,0,1.45,1.79,1.79,0,0,1-1,1,3,3,0,0,1-1.2.24,3.68,3.68,0,0,1-1.81-.4.42.42,0,0,1-.25-.41V7.65s0,0,0,0h0l.33.23a3.06,3.06,0,0,0,1.67.43" style="fill: #fff"/>
    <path d="M114,8.85h-.66a0,0,0,0,1,0,0V1.92a0,0,0,0,1,0,0H114s0,0,0,0v6.9s0,0,0,0" style="fill: #fff"/>
    <path d="M119.41,1.37l-.26-.26a0,0,0,0,0,0,0s0,0,0,0l1-1h.68s0,0,0,0a0,0,0,0,1,0,0l-1.3,1.31a.12.12,0,0,1-.19,0M117.7,3.32a2.82,2.82,0,0,0-.84,2.05,2.82,2.82,0,0,0,.84,2.05,2.86,2.86,0,0,0,4.07,0,2.82,2.82,0,0,0,.84-2,2.82,2.82,0,0,0-.84-2.05,2.86,2.86,0,0,0-4.07,0m5.64,2.05a3.5,3.5,0,0,1-1.06,2.57,3.59,3.59,0,0,1-5.09,0,3.5,3.5,0,0,1-1.06-2.57,3.5,3.5,0,0,1,1.06-2.57,3.56,3.56,0,0,1,5.09,0,3.5,3.5,0,0,1,1.06,2.57" style="fill: #fff"/>
    <path d="M130.22,8.89a.15.15,0,0,1-.16-.05l-3.88-5.11V8.82a0,0,0,0,1,0,0h-.67a0,0,0,0,1,0,0V2a.14.14,0,0,1,.1-.14.14.14,0,0,1,.16,0L129.59,7V2.16a.27.27,0,0,1,.27-.27h.43a0,0,0,0,1,0,0V8.75a.14.14,0,0,1-.1.14" style="fill: #fff"/>
    <path d="M78.4,16.67H80a1.08,1.08,0,0,0,1.1-.74,1.51,1.51,0,0,0,0-1.08,1.07,1.07,0,0,0-1.1-.73H78.4Zm0,.73v2.91a0,0,0,0,1,0,0h-.66s0,0,0,0V13.42s0,0,0,0H80a1.9,1.9,0,0,1,1.14.35,1.86,1.86,0,0,1,.64.86,2.15,2.15,0,0,1,.15.8,2.24,2.24,0,0,1-.15.81,1.84,1.84,0,0,1-.64.85A1.9,1.9,0,0,1,80,17.4Z" style="fill: #fff"/>
    <path d="M85.86,14.91l-1.37,3.14h2.74ZM83.5,20.32s0,0,0,0h-.75a0,0,0,0,1,0,0l3-6.86a.14.14,0,0,1,.15-.11.16.16,0,0,1,.15.11l3,6.86v0h-.56a.28.28,0,0,1-.3-.2l-.59-1.35H84.17Z" style="fill: #fff"/>
    <path d="M91.27,16.67h1.59a1.09,1.09,0,0,0,1.1-.74,1.51,1.51,0,0,0,0-1.08,1.08,1.08,0,0,0-1.1-.73H91.27Zm0,.73v2.91s0,0,0,0h-.66a0,0,0,0,1,0,0V13.42s0,0,0,0h2.29a1.85,1.85,0,0,1,1.13.35,1.88,1.88,0,0,1,.65.86,2.15,2.15,0,0,1,.15.8,2.24,2.24,0,0,1-.15.81,1.77,1.77,0,0,1-1.55,1.19l2.12,2.9a0,0,0,0,1,0,0s0,0,0,0h-.63a.35.35,0,0,1-.32-.16l-2-2.7a.19.19,0,0,0-.16-.08Z" style="fill: #fff"/>
    <path d="M99.06,14.91l-1.37,3.14h2.74ZM96.7,20.32s0,0,0,0h-.75a0,0,0,0,1,0,0l3-6.86a.15.15,0,0,1,.15-.11.16.16,0,0,1,.15.11l3,6.86v0h-.56a.29.29,0,0,1-.3-.2l-.59-1.35H97.37Z" style="fill: #fff"/>
    <path d="M108.17,16.32h2s0,0,0,0v.43a.27.27,0,0,1-.27.27h-1.73v2.55h1.73a.22.22,0,0,1,.19.08.26.26,0,0,1,.08.19v.43a0,0,0,0,1,0,0H107.7a.25.25,0,0,1-.19-.08.24.24,0,0,1-.07-.18V13.42s0,0,0,0h2.67s0,0,0,0v.66s0,0,0,0h-2Z" style="fill: #fff"/>
    <path d="M115,19.61a.22.22,0,0,1,.18.08.22.22,0,0,1,.08.19v.43a0,0,0,0,1,0,0h-2.44a.25.25,0,0,1-.19-.08.24.24,0,0,1-.07-.18V13.42s0,0,0,0h.66s0,0,0,0v6.19Z" style="fill: #fff"/>
    <path d="M121.29,13.39l3.15,4.07,3.15-4.07a.12.12,0,0,1,.15,0,.12.12,0,0,1,.09.12v6.84a0,0,0,0,1,0,0h-.43a.22.22,0,0,1-.19-.08.25.25,0,0,1-.08-.18V15.22l-2.61,3.36a.06.06,0,0,1-.1,0l-2.61-3.36v5.09s0,0,0,0h-.66a0,0,0,0,1,0,0V13.47a.12.12,0,0,1,.09-.12.12.12,0,0,1,.15,0" style="fill: #fff"/>
    <path d="M131.26,16.32h2s0,0,0,0v.43a.27.27,0,0,1-.27.27h-1.73v2.55H133a.22.22,0,0,1,.19.08.26.26,0,0,1,.08.19v.43a0,0,0,0,1,0,0h-2.44a.25.25,0,0,1-.19-.08.24.24,0,0,1-.07-.18V13.42s0,0,0,0h2.67s0,0,0,0v.66s0,0,0,0h-2Z" style="fill: #fff"/>
    <path d="M136.39,16.67H138a1.09,1.09,0,0,0,1.11-.74,1.51,1.51,0,0,0,0-1.08,1.08,1.08,0,0,0-1.11-.73h-1.58Zm0,.73v2.91s0,0,0,0h-.66a0,0,0,0,1,0,0V13.42s0,0,0,0H138a1.86,1.86,0,0,1,1.14.35,1.88,1.88,0,0,1,.65.86,2.37,2.37,0,0,1,.15.8,2.47,2.47,0,0,1-.15.81,1.77,1.77,0,0,1-1.55,1.19l2.12,2.9a0,0,0,0,1,0,0s0,0,0,0h-.64a.38.38,0,0,1-.32-.16l-2-2.7a.19.19,0,0,0-.16-.08Z" style="fill: #fff"/>
    <path d="M147.05,13.76v.8s0,0,0,0h0a2.88,2.88,0,0,0-4.67,2.27,2.77,2.77,0,0,0,.85,2.05,2.74,2.74,0,0,0,2,.85,2.82,2.82,0,0,0,1.79-.62h0s0,0,0,0v.55a.43.43,0,0,1-.26.42,3.56,3.56,0,0,1-1.58.37,3.48,3.48,0,0,1-2.55-1.07,3.65,3.65,0,0,1,0-5.14,3.6,3.6,0,0,1,4.38-.56s0,0,0,0" style="fill: #fff"/>
    <path d="M151.41,14.91,150,18.05h2.74Zm-2.36,5.41s0,0,0,0h-.75a0,0,0,0,1,0,0l3-6.86a.14.14,0,0,1,.15-.11.16.16,0,0,1,.15.11l3,6.86v0H154a.28.28,0,0,1-.3-.2l-.59-1.35h-3.38Z" style="fill: #fff"/>
    <path d="M156.82,19.61h1.34a2.24,2.24,0,0,0,1.4-.46,2.48,2.48,0,0,0,.78-1.14,3.58,3.58,0,0,0,0-2.3,2.45,2.45,0,0,0-.78-1.13,2.18,2.18,0,0,0-1.4-.46h-1.34ZM160,14a3.13,3.13,0,0,1,1,1.48,4.06,4.06,0,0,1,.24,1.39,4.12,4.12,0,0,1-.24,1.4,3.23,3.23,0,0,1-1,1.48,2.88,2.88,0,0,1-1.84.6h-1.81a.27.27,0,0,1-.26-.26V13.42s0,0,0,0h2A2.83,2.83,0,0,1,160,14" style="fill: #fff"/>
    <path d="M164.36,14.81a2.92,2.92,0,0,0,0,4.1,2.86,2.86,0,0,0,4.07,0,2.9,2.9,0,0,0-2-4.95,2.78,2.78,0,0,0-2,.85m5.64,2a3.49,3.49,0,0,1-1.06,2.57,3.57,3.57,0,0,1-5.1,0,3.67,3.67,0,0,1,0-5.14A3.61,3.61,0,0,1,170,16.86" style="fill: #fff"/>
    <path d="M78.4,31.8s0,0,0,0h-.66a0,0,0,0,1,0,0V24.91s0,0,0,0h2.66s0,0,0,0v.67s0,0,0,0h-2v2.21h2s0,0,0,0v.43a.26.26,0,0,1-.08.19.24.24,0,0,1-.19.08H78.4Z" style="fill: #fff"/>
    <path d="M83.38,31.83h-.66s0,0,0,0V24.91s0,0,0,0h.66a0,0,0,0,1,0,0V31.8a0,0,0,0,1,0,0" style="fill: #fff"/>
    <path d="M90.88,31.87a.13.13,0,0,1-.16-.05l-3.88-5.1V31.8a0,0,0,0,1,0,0h-.67a0,0,0,0,1,0,0V25a.13.13,0,0,1,.1-.14.13.13,0,0,1,.16.05L90.25,30V25.14a.25.25,0,0,1,.08-.19.24.24,0,0,1,.18-.07H91a0,0,0,0,1,0,0v6.83a.13.13,0,0,1-.1.13" style="fill: #fff"/>
    <path d="M95.66,26.4l-1.37,3.15H97ZM93.3,31.82h-.78a0,0,0,0,1,0,0l3-6.86a.16.16,0,0,1,.3,0l3,6.86v0h-.56a.3.3,0,0,1-.3-.19l-.59-1.36H94Z" style="fill: #fff"/>
    <path d="M105.11,31.87a.13.13,0,0,1-.16-.05l-3.88-5.1V31.8a0,0,0,0,1,0,0h-.67a0,0,0,0,1,0,0V25a.13.13,0,0,1,.1-.14.13.13,0,0,1,.16.05L104.48,30V25.14a.29.29,0,0,1,.08-.19.24.24,0,0,1,.18-.07h.44a0,0,0,0,1,0,0v6.83a.13.13,0,0,1-.1.13" style="fill: #fff"/>
    <path d="M112.77,25.25v.81s0,0,0,0h0a2.81,2.81,0,0,0-1.78-.62,2.78,2.78,0,0,0-2,.84,2.93,2.93,0,0,0,0,4.11,2.85,2.85,0,0,0,3.82.22h0l0,0v.55a.43.43,0,0,1-.26.42,3.49,3.49,0,0,1-1.58.37,3.44,3.44,0,0,1-2.55-1.06,3.62,3.62,0,0,1,4.37-5.71s0,0,0,0" style="fill: #fff"/>
    <path d="M115.83,31.83h-.66s0,0,0,0V24.91s0,0,0,0h.66a0,0,0,0,1,0,0V31.8a0,0,0,0,1,0,0" style="fill: #fff"/>
    <path d="M119.29,27.82h2a0,0,0,0,1,0,0v.43a.26.26,0,0,1-.26.27h-1.74V31.1H121a.29.29,0,0,1,.19.08.25.25,0,0,1,.07.19v.43a0,0,0,0,1,0,0h-2.43a.25.25,0,0,1-.19-.07.27.27,0,0,1-.08-.19V24.91a0,0,0,0,1,0,0h2.67a0,0,0,0,1,0,0v.67a0,0,0,0,1,0,0h-2Z" style="fill: #fff"/>
    <path d="M124.42,28.16H126a1.09,1.09,0,0,0,1.1-.74,1.32,1.32,0,0,0,.1-.53,1.33,1.33,0,0,0-.1-.54,1.09,1.09,0,0,0-1.1-.74h-1.59Zm0,.73V31.8a0,0,0,0,1,0,0h-.67a0,0,0,0,1,0,0V24.91a0,0,0,0,1,0,0H126a1.79,1.79,0,0,1,1.78,1.2,2.2,2.2,0,0,1,.15.81,2.22,2.22,0,0,1-.15.8,1.74,1.74,0,0,1-1.55,1.19l2.12,2.9a0,0,0,0,1,0,0h-.66a.36.36,0,0,1-.32-.16l-2-2.7a.21.21,0,0,0-.17-.08Z" style="fill: #fff"/>
    <path d="M131.21,26.3a2.93,2.93,0,0,0,0,4.11,2.86,2.86,0,0,0,4.07,0,2.93,2.93,0,0,0,0-4.11,2.89,2.89,0,0,0-4.07,0m5.64,2.06a3.5,3.5,0,0,1-1.06,2.57,3.59,3.59,0,0,1-5.09,0,3.62,3.62,0,1,1,6.15-2.57" style="fill: #fff"/>
    <path d="M23.25,18.21a7.76,7.76,0,0,1-.38,1.47,8.58,8.58,0,0,1-7.93,5.65A8.48,8.48,0,0,1,8.07,12L1.92,9.47a15.08,15.08,0,0,0,13,22.44A14.93,14.93,0,0,0,28,24.14a15.19,15.19,0,0,0,1.37-3.42Z" style="fill: #fff"/>
  </g>
</svg>
